<svg width="1200" height="300"
    xmlns="http://www.w3.org/2000/svg"
    xmlns:svg="http://www.w3.org/2000/svg" clip-rule="evenodd">
    <defs>
        <path id="svg_1" d="m0,0z"/>
        <style type="text/css">
            <![CDATA[
       @font-face { font-family:"Euphorigenic";font-variant:normal;font-weight:normal;src:url("#FontID0") format(svg)}
       .str0 {stroke-width:8.03;stroke-miterlimit:22.9256}
       .str1 {stroke:#dd3c39;stroke-width:7.62;stroke-miterlimit:22.9256}
       .fil3 {fill:#fecf3e}
       .fil0 {fill:#dd3c39}
       .fil4 {fill:#F68919}
       .fil2 {fill:#FEFEFE;fill-rule:nonzero}
       .fil1 {fill:#fecf3e;fill-rule:nonzero}
       .fnt0 {font-weight:normal;font-size:948.92px;font-family:'Euphorigenic'}
      ]]>
        </style>
    </defs>
    <g>
        <title>Layer 1</title>
        <metadata id="CorelCorpID_0Corel-Layer"/>
        <g id="_3223907627072"/>
        <g id="_3223907627024">
            <g id="svg_7"/>
        </g>
        <rect x="1.48147" y="-2.25185" fill="black" id="svg_2" height="302.10043" width="1199.35928" class="fil0"/>
        <g stroke="null" id="svg_11">
            <path stroke="null" id="svg_6" d="m284.30329,52.32447c-6.22294,7.88868 -9.27545,10.98696 -9.20974,23.21204c0.11525,21.41167 15.51778,39.19351 13.43305,53.30837c-0.87191,5.90089 -3.26361,7.1444 -6.20625,10.52488l1.6932,-0.99686c18.7857,-15.06755 -14.19833,-47.88248 -3.27869,-74.98231c2.14235,-5.31657 6.95699,-9.9077 10.34501,-11.18353c29.02838,-10.92987 45.71858,20.33188 29.07093,35.26641c-3.18391,2.85647 -8.44769,5.29071 -14.55216,4.20284c-6.56977,-1.17027 -10.63905,-6.47283 -11.83517,-10.50334c-3.79301,-12.78841 12.47766,-22.1958 19.73032,-11.43503c2.89309,4.29224 0.01939,11.8034 -5.31172,12.51752c-3.71976,0.4987 -6.05923,-1.77398 -6.8929,-4.06121c-1.18535,-3.25123 0.3506,-5.02467 2.80962,-6.71141c0.08617,-0.0587 0.22565,-0.15403 0.29674,-0.20249c0.07217,-0.04955 0.20519,-0.13194 0.30213,-0.20465c-8.96416,1.84776 -2.87155,15.84199 5.92944,11.25031c7.70557,-4.02081 6.21325,-13.66786 -0.71681,-17.37147c-7.2058,-3.85063 -15.14887,1.33237 -17.60197,7.77451c-0.78844,2.07072 -1.00817,3.85817 -0.83368,6.01668c0.54609,6.73726 4.31325,9.28352 6.99253,12.12761c0.60533,0.64303 0.29566,0.26874 0.63387,0.77443c3.71869,0.76959 10.58197,5.26756 19.8698,-0.27466c10.6536,-6.35651 14.78427,-22.33313 4.53513,-34.66592c-4.99774,-6.01345 -9.40147,-8.02547 -18.45557,-10.27553c3.61313,-1.84238 9.21459,-2.73368 14.20372,-6.71787c20.12454,-16.07249 -3.82586,-40.25984 -17.59335,-26.74978c-5.19593,5.09899 -4.61645,11.9892 -0.86383,15.99709c4.8281,5.15608 12.24393,3.77954 14.79558,-1.49609c3.41602,-7.06308 -4.70531,-13.02214 -9.44186,-8.53009c-2.63028,2.49456 -1.69805,6.2558 0.82075,7.47454c3.28138,1.58765 6.2558,-1.58818 4.5012,-4.3321c1.83753,7.23919 -9.20597,4.24754 -5.57399,-1.74436c0.62149,-1.0254 2.4364,-2.10465 3.64652,-2.14666c6.69579,-0.23104 8.39384,9.75368 0.61449,12.39365c-7.006,2.37716 -11.76893,-5.54329 -10.40371,-11.14475c1.4934,-6.12547 8.70027,-9.78868 14.91353,-7.86229c6.09585,1.89031 9.69552,8.0761 9.87485,13.23271c0.42869,12.29186 -15.60018,18.48519 -25.20683,20.88281c-5.82657,1.45408 -8.86292,2.50857 -13.5553,5.74687c-0.92038,0.63549 -0.68665,0.82614 -1.47886,0.88915z" class="fil3"/>
            <path stroke="null" id="svg_8" d="m41.95526,176.57603c-4.14091,-7.99531 6.2111,-11.41834 10.47641,-6.03984c4.41934,5.57238 -0.10609,13.18801 -6.44213,14.22418c-14.39759,2.354 -19.47558,-16.57064 -7.49823,-25.89348c11.15822,-8.6852 26.99536,-1.49394 28.13762,11.714c3.0175,34.87542 -56.01404,114.82155 102.98691,115.21684c26.20584,0.06463 60.57341,-2.23067 81.71365,-12.09637c66.47969,-31.02586 1.52248,-98.53741 30.62626,-115.98589c5.62408,-3.37132 13.80627,-3.23669 18.97096,0.15079c12.0129,7.87845 10.44841,26.66145 -3.83878,27.07883c-7.0033,0.20465 -12.678,-6.19817 -9.66643,-12.98067c1.09164,-2.45848 3.95134,-4.62022 7.93984,-3.85225c4.21846,0.81213 3.75692,3.67345 4.75755,7.18964c0.46962,-9.54741 -7.84613,-10.94387 -12.83795,-5.90358c-5.70701,5.76141 -1.29306,13.87035 3.64975,16.80437c11.69677,6.94245 26.19453,-7.04693 20.61085,-22.15972c-4.07036,-11.01712 -20.03567,-18.05596 -32.87255,-10.38055c-12.04252,7.20041 -11.728,20.89035 -8.57856,37.43299c6.24449,32.80146 11.74954,57.05614 -15.61149,72.20609c-35.15116,19.46373 -135.39846,19.656 -169.66748,-0.83044c-27.02174,-16.15381 -19.34902,-40.87217 -13.78634,-73.43398c2.87693,-16.84046 2.43371,-29.77104 -10.44356,-36.19648c-14.09708,-7.03346 -28.38374,1.47293 -31.91178,12.86865c-4.71393,15.22858 11.88041,28.11823 22.59002,19.46697c5.10492,-4.12314 7.27689,-12.33279 0.96831,-16.84315c-7.3749,-5.27348 -14.98246,2.93133 -10.27284,8.24305z" class="fil4"/>
            <path stroke="null" fill="black" id="svg_9" d="m140.45551,114.98369c-16.12311,2.38739 -29.78074,4.84103 -44.97916,8.424c-6.55254,1.54456 -37.89722,10.98265 -39.38308,13.96083c20.18108,-7.16056 49.96128,-12.45505 72.32134,-15.1521c6.42005,-0.77443 22.88407,-1.57203 26.92427,-3.38909c1.08572,-9.77253 -12.44966,-3.27492 -12.86973,-14.50046c-0.2682,-7.16541 8.2215,-11.46088 15.17365,-12.07106c18.20945,-1.59895 23.69781,11.09575 13.72495,17.88632c-1.47778,1.00601 -2.92594,1.35499 -4.12529,2.20375c-0.55363,0.3926 -1.17458,0.5267 -1.55372,1.77668c-1.89516,6.2488 8.50209,3.68853 13.58169,3.38856c19.81379,-1.16865 84.23352,-4.67515 95.14616,4.36118c-4.81841,7.16918 -81.22195,15.7192 -98.68174,17.10866l-64.74232,5.64616c17.309,1.77721 110.45929,-7.16056 131.4412,-10.51519c6.58647,-1.0534 35.8168,-3.92764 36.48676,-11.44311c1.47024,-16.47532 -89.03847,-11.15714 -98.9354,-11.29393c3.10582,-8.33029 5.65585,-12.64946 -1.5074,-19.86926c-9.23505,-9.30776 -30.73505,-8.7649 -39.86724,3.3137c-7.48369,9.89801 1.51063,19.19931 1.84507,20.16439z" class="fil4"/>
        </g>
        <g stroke="null" id="svg_12">
            <path stroke="null" fill="black" id="svg_3" d="m410.24927,90.32725l-6.15672,0c0,-5.76579 -1.36795,-8.64868 -4.10448,-8.64868l-10.40756,0c-2.24739,0 -3.73794,0.21954 -4.47102,0.65926c-0.73308,0.43972 -1.24598,1.73449 -1.53934,3.88494c-0.19515,2.44317 -0.39029,7.62224 -0.58608,15.53785c-0.19515,7.91625 -0.34215,17.8353 -0.43972,29.75781l10.2612,0c3.32261,0 4.98392,-2.83411 4.98392,-8.50232l6.30308,0l0,23.74745l-6.30308,0c0,-5.76579 -1.66131,-8.64868 -4.98392,-8.64868l-10.40756,0l0,13.4856c0,6.93859 0.02439,12.97335 0.07318,18.10363c0.04879,5.13092 0.12197,9.55316 0.21954,13.26671c0.09821,3.71355 0.22018,6.86477 0.36654,9.45494c0.147,2.58953 0.31775,4.76374 0.5129,6.52262c0.29336,1.66131 0.85569,2.80971 1.68634,3.44522c0.83065,0.63487 2.36935,0.95262 4.61738,0.95262l2.78532,0l0,6.74344l-30.78361,0l0,-6.74344l2.1986,0c2.54075,0 4.00691,-1.95467 4.39784,-5.86336c0.09757,-0.97701 0.21954,-2.36999 0.36654,-4.17766c0.14636,-1.80831 0.26833,-4.76438 0.36654,-8.86886c0.09757,-4.10448 0.17075,-9.79709 0.21954,-17.07719c0.04879,-7.28074 0.07318,-16.93083 0.07318,-28.95155c0,-8.11075 -0.02439,-15.02495 -0.07318,-20.74195c-0.04879,-5.717 -0.09757,-10.48074 -0.14636,-14.29251c-0.04879,-3.81112 -0.09757,-6.84038 -0.147,-9.0884c-0.04879,-2.24739 -0.12197,-3.98187 -0.21954,-5.20346c-0.09757,-1.22159 -0.22018,-2.10103 -0.36654,-2.63896c-0.14636,-0.53729 -0.31775,-1.05019 -0.5129,-1.53934c-0.48851,-1.17216 -1.00205,-2.00281 -1.53934,-2.49196c-0.53729,-0.48851 -1.58813,-0.73244 -3.15186,-0.73244l-1.46552,0l0,-6.59644l48.3737,0l0,15.24513zm38.84429,121.5213c-6.05915,0 -11.23886,-0.78187 -15.53849,-2.3456c-4.30027,-1.56373 -7.86682,-3.76233 -10.70092,-6.59644c-1.75888,-1.75888 -3.29822,-3.8843 -4.61738,-6.37626c-1.3198,-2.49196 -2.39439,-5.864 -3.22504,-10.11485c-0.83065,-4.25084 -1.44177,-9.67448 -1.8327,-16.27157c-0.39093,-6.59644 -0.58608,-14.92737 -0.58608,-24.99279c0,-10.35878 0.19515,-19.05625 0.58608,-26.09305c0.39093,-7.03616 1.02644,-12.94831 1.90588,-17.73709c0.87944,-4.78813 2.02785,-8.64868 3.44458,-11.58037c1.41738,-2.93168 3.15186,-5.42364 5.2041,-7.47588c2.63832,-2.83411 5.88776,-5.00832 9.74831,-6.52326c3.85991,-1.51431 8.4285,-2.27178 13.70579,-2.27178c5.66822,0 10.55457,0.83065 14.65905,2.49196c4.10384,1.66131 7.57346,3.95748 10.40756,6.88916c1.95467,2.05224 3.59158,4.51981 4.91074,7.4027c1.31916,2.88289 2.39439,6.69466 3.22504,11.43401c0.83065,4.73999 1.44113,10.62775 1.83206,17.66391c0.39093,7.03616 0.58608,15.68485 0.58608,25.94605c0,9.96784 -0.19515,18.24999 -0.58608,24.84643c-0.39093,6.59708 -1.00141,12.02073 -1.83206,16.27157c-0.83065,4.25084 -1.8571,7.59785 -3.07868,10.04102c-1.22159,2.44317 -2.66271,4.5442 -4.32402,6.30372c-5.864,6.05851 -13.82839,9.0884 -23.89381,9.0884zm-1.3198,-6.74344c3.5184,0 6.67026,-0.80626 9.45494,-2.41814c2.78532,-1.61252 5.00832,-3.88494 6.67026,-6.81662c0.58608,-0.97701 1.09898,-2.1986 1.5387,-3.66476c0.43972,-1.46552 0.80626,-3.90869 1.09962,-7.32952c0.29336,-3.42019 0.5129,-8.25775 0.6599,-14.51205c0.14636,-6.2543 0.21954,-14.60962 0.21954,-25.06661c0,-11.53158 -0.09757,-20.79074 -0.29336,-27.77811c-0.19515,-6.98738 -0.48851,-12.48484 -0.87944,-16.49111c-0.39093,-4.00691 -0.90383,-6.93859 -1.53934,-8.79569c-0.63487,-1.85645 -1.34355,-3.3714 -2.12542,-4.5442c-1.66131,-2.44317 -3.71355,-4.32402 -6.15672,-5.64318c-2.44317,-1.3198 -5.32607,-1.97906 -8.64868,-1.97906c-6.54766,0 -11.58037,2.58953 -15.09813,7.76924c-0.78187,1.17216 -1.49055,2.66271 -2.12542,4.47038c-0.63551,1.80831 -1.14841,4.7156 -1.53934,8.72251c-0.39093,4.00627 -0.68429,9.50373 -0.87944,16.49111c-0.19579,6.98738 -0.29336,16.19775 -0.29336,27.63175c0,10.74971 0.09757,19.34961 0.29336,25.79905c0.19515,6.45008 0.48851,11.50719 0.87944,15.17195c0.39093,3.66476 0.87944,6.27933 1.46552,7.84242c0.58672,1.56373 1.27037,2.83411 2.05224,3.81176c1.75952,2.24739 3.90934,4.03066 6.45008,5.35046c2.54075,1.31916 5.47243,1.97842 8.79504,1.97842zm108.17948,4.98456c-0.48851,0.19515 -1.12337,0.34151 -1.90524,0.43972c-0.78187,0.09757 -1.66131,0.14636 -2.63896,0.14636c-2.34496,0 -4.32402,-0.22018 -5.93654,-0.6599c-1.61252,-0.43972 -3.00486,-1.14777 -4.17766,-2.12542c-1.1728,-0.97701 -2.17421,-2.17421 -3.00486,-3.59158c-0.83065,-1.41673 -1.63691,-3.10243 -2.41878,-5.0571c-0.87944,3.61598 -3.0055,6.62084 -6.3769,9.01522c-3.3714,2.39439 -7.64664,3.59158 -12.82635,3.59158c-4.98392,0 -9.30858,-1.14841 -12.9727,-3.44522c-3.66476,-2.29617 -6.71905,-5.49682 -9.16223,-9.6013c-1.07459,-1.85645 -2.02785,-3.98252 -2.8585,-6.37626c-0.83065,-2.39439 -1.5387,-5.54625 -2.12542,-9.45494c-0.58608,-3.90934 -1.0258,-8.82008 -1.31916,-14.73223c-0.29336,-5.91215 -0.43972,-13.26607 -0.43972,-22.06175c0,-10.2612 0.19515,-18.83607 0.58608,-25.72587c0.39093,-6.8898 0.95326,-12.6312 1.6857,-17.22419c0.73308,-4.59299 1.66131,-8.28214 2.78532,-11.06747c1.12401,-2.78532 2.41878,-5.2041 3.88494,-7.25634c2.73589,-3.61533 6.0829,-6.42505 10.04102,-8.4285c3.95812,-2.00345 8.5755,-3.00486 13.85279,-3.00486c4.29963,0 8.08636,0.5129 11.36018,1.5387c3.27383,1.02644 6.01036,2.44317 8.20896,4.25148c2.19924,1.80767 3.83551,3.90869 4.91074,6.30308c1.07523,2.39439 1.61252,4.95953 1.61252,7.69606c0,3.51776 -0.75747,6.27869 -2.27242,8.28214c-1.51431,2.00345 -3.73794,3.00486 -6.66962,3.00486c-3.12683,0 -5.37486,-1.0258 -6.7428,-3.07804c-1.36795,-2.05224 -2.05224,-4.39784 -2.05224,-7.03616c0,-2.83411 0.46411,-5.03335 1.39234,-6.59644c0.92887,-1.56373 2.36999,-2.73654 4.32466,-3.5184c-2.44317,-2.83411 -6.49887,-4.25084 -12.16709,-4.25084c-3.51776,0 -6.54766,0.70805 -9.0884,2.12542c-2.54075,1.41673 -4.64177,3.39579 -6.30308,5.93654c-0.78187,1.1728 -1.46616,2.66336 -2.05224,4.47102c-0.58672,1.80831 -1.05083,4.73999 -1.39234,8.79569c-0.34215,4.05505 -0.61111,9.6013 -0.80626,16.63747c-0.19579,7.03616 -0.29336,16.41793 -0.29336,28.14465c0,9.96784 0.04879,17.93288 0.14636,23.89381c0.09757,5.96158 0.26897,10.65214 0.5129,14.07233c0.24457,3.42083 0.56233,5.8884 0.95326,7.4027c0.39093,1.51495 0.83065,2.80971 1.31916,3.88494c1.36795,2.93168 3.20065,5.27728 5.49682,7.03616c2.29682,1.75888 5.00832,2.63832 8.13578,2.63832c2.44317,0 4.64177,-0.90383 6.59644,-2.7115c1.95467,-1.80831 3.61598,-4.25148 4.98392,-7.32952c1.36859,-3.07804 2.41878,-6.64523 3.15186,-10.70092c0.73308,-4.0557 1.09962,-8.37972 1.09962,-12.9727c0,-5.08214 -0.07382,-9.2598 -0.22018,-12.53363c-0.14636,-3.27383 -0.48851,-5.83897 -1.0258,-7.69606c-0.53793,-1.85645 -1.29541,-3.12683 -2.27242,-3.81112c-0.97701,-0.68429 -2.29682,-1.0258 -3.95812,-1.0258l0,-6.45008l28.43801,0l0,6.45008l-4.25084,0c-0.09757,0 -0.34215,0.29272 -0.73308,0.87944c-0.39093,0.58608 -0.80626,2.12542 -1.24598,4.61738c-0.43972,2.49196 -0.83065,6.30308 -1.1728,11.43401c-0.34151,5.13028 -0.5129,12.23962 -0.5129,21.32867c0,2.54075 0.07318,4.95953 0.22018,7.2557c0.14636,2.29682 0.43972,4.32466 0.87944,6.08354c0.43972,1.75888 1.05019,3.15186 1.83206,4.17766c0.78187,1.02644 1.80831,1.53934 3.07868,1.53934c0.19515,0 0.5129,0 0.95262,0c0.43972,0 0.75747,-0.04879 0.95262,-0.147l0,6.59708zm111.84296,1.75888c-6.05915,0 -11.23886,-0.78187 -15.53849,-2.3456c-4.30027,-1.56373 -7.86682,-3.76233 -10.70092,-6.59644c-1.75888,-1.75888 -3.29822,-3.8843 -4.61738,-6.37626c-1.3198,-2.49196 -2.39439,-5.864 -3.22504,-10.11485c-0.83065,-4.25084 -1.44177,-9.67448 -1.8327,-16.27157c-0.39093,-6.59644 -0.58608,-14.92737 -0.58608,-24.99279c0,-10.35878 0.19515,-19.05625 0.58608,-26.09305c0.39093,-7.03616 1.02644,-12.94831 1.90588,-17.73709c0.87944,-4.78813 2.02785,-8.64868 3.44458,-11.58037c1.41738,-2.93168 3.15186,-5.42364 5.2041,-7.47588c2.63832,-2.83411 5.88776,-5.00832 9.74831,-6.52326c3.85991,-1.51431 8.4285,-2.27178 13.70579,-2.27178c5.66822,0 10.55457,0.83065 14.65905,2.49196c4.10384,1.66131 7.57346,3.95748 10.40756,6.88916c1.95467,2.05224 3.59158,4.51981 4.91074,7.4027c1.31916,2.88289 2.39439,6.69466 3.22504,11.43401c0.83065,4.73999 1.44113,10.62775 1.83206,17.66391c0.39093,7.03616 0.58608,15.68485 0.58608,25.94605c0,9.96784 -0.19515,18.24999 -0.58608,24.84643c-0.39093,6.59708 -1.00141,12.02073 -1.83206,16.27157c-0.83065,4.25084 -1.8571,7.59785 -3.07868,10.04102c-1.22159,2.44317 -2.66271,4.5442 -4.32402,6.30372c-5.864,6.05851 -13.82839,9.0884 -23.89381,9.0884zm-1.3198,-6.74344c3.5184,0 6.67026,-0.80626 9.45494,-2.41814c2.78532,-1.61252 5.00832,-3.88494 6.67026,-6.81662c0.58608,-0.97701 1.09898,-2.1986 1.5387,-3.66476c0.43972,-1.46552 0.80626,-3.90869 1.09962,-7.32952c0.29336,-3.42019 0.5129,-8.25775 0.6599,-14.51205c0.14636,-6.2543 0.21954,-14.60962 0.21954,-25.06661c0,-11.53158 -0.09757,-20.79074 -0.29336,-27.77811c-0.19515,-6.98738 -0.48851,-12.48484 -0.87944,-16.49111c-0.39093,-4.00691 -0.90383,-6.93859 -1.53934,-8.79569c-0.63487,-1.85645 -1.34355,-3.3714 -2.12542,-4.5442c-1.66131,-2.44317 -3.71355,-4.32402 -6.15672,-5.64318c-2.44317,-1.3198 -5.32607,-1.97906 -8.64868,-1.97906c-6.54766,0 -11.58037,2.58953 -15.09813,7.76924c-0.78187,1.17216 -1.49055,2.66271 -2.12542,4.47038c-0.63551,1.80831 -1.14841,4.7156 -1.53934,8.72251c-0.39093,4.00627 -0.68429,9.50373 -0.87944,16.49111c-0.19579,6.98738 -0.29336,16.19775 -0.29336,27.63175c0,10.74971 0.09757,19.34961 0.29336,25.79905c0.19515,6.45008 0.48851,11.50719 0.87944,15.17195c0.39093,3.66476 0.87944,6.27933 1.46552,7.84242c0.58672,1.56373 1.27037,2.83411 2.05224,3.81176c1.75952,2.24739 3.90934,4.03066 6.45008,5.35046c2.54075,1.31916 5.47243,1.97842 8.79504,1.97842zm135.29898,-111.84617c0,2.83411 -0.90383,5.42364 -2.71214,7.76924c-1.80767,2.34496 -4.12888,3.51776 -6.96298,3.51776c-5.47243,0 -8.20896,-3.27383 -8.20896,-9.82148c0,-2.83411 0.34215,-5.00832 1.02644,-6.52326c0.68429,-1.51431 2.24739,-2.80907 4.69056,-3.8843c-2.44317,-2.83411 -6.49887,-4.25084 -12.16644,-4.25084c-6.05915,0 -10.84793,2.1986 -14.36569,6.59644c-0.97765,1.1728 -1.80831,2.66271 -2.49196,4.47102c-0.68429,1.80767 -1.24598,4.61738 -1.6857,8.4285c-0.43972,3.81112 -0.78187,8.94204 -1.02644,15.39149c-0.24393,6.45008 -0.36654,14.85484 -0.36654,25.21361c0,11.92251 0.09821,21.42624 0.29336,28.51119c0.19515,7.08495 0.46411,12.55738 0.80626,16.41793c0.34215,3.85991 0.78187,6.59644 1.31916,8.20896c0.53729,1.61252 1.14841,2.90729 1.8327,3.8843c2.05224,2.83411 4.22645,4.86196 6.52262,6.08354c2.29682,1.22159 5.35046,1.83206 9.16223,1.83206c4.69056,0 8.4529,-1.0258 11.287,-3.07804c2.83411,-2.05224 4.83756,-5.08149 6.01036,-9.0884l4.69056,1.90524c-1.75888,6.15672 -4.5442,10.53017 -8.35532,13.11971c-3.81112,2.59018 -8.74626,3.88494 -14.80541,3.88494c-5.57064,0 -10.53017,-1.02644 -14.87859,-3.07868c-4.34906,-2.05224 -7.98942,-4.93514 -10.92111,-8.64868c-1.56373,-1.95403 -2.88289,-4.12888 -3.95748,-6.52326c-1.07523,-2.39375 -1.93027,-5.61879 -2.56578,-9.67448c-0.63487,-4.0557 -1.09898,-9.21037 -1.39234,-15.46531c-0.29336,-6.2543 -0.43972,-14.21869 -0.43972,-23.89381c0,-9.38112 0.09757,-17.17476 0.29336,-23.38027c0.19515,-6.20551 0.53729,-11.36083 1.0258,-15.46531c0.48851,-4.10448 1.22159,-7.47588 2.1986,-10.11485c0.97765,-2.63832 2.19924,-5.17907 3.66476,-7.62224c2.83411,-4.49542 6.52326,-8.03821 11.06747,-10.62775c4.5442,-2.58953 10.09045,-3.8843 16.63811,-3.8843c3.81112,0 7.23131,0.5129 10.2612,1.5387c3.02925,1.02644 5.61879,2.44317 7.7686,4.25148c2.15046,1.80767 3.81176,3.90869 4.98456,6.30308c1.17216,2.39439 1.75888,4.95953 1.75888,7.69606zm69.48091,116.83073l-30.93062,0l0,-6.74344l1.75952,0c3.51776,0 5.27728,-0.87944 5.27728,-2.63832c0,-1.36859 -0.17139,-3.59158 -0.51354,-6.66962c-0.34215,-3.07868 -0.85505,-6.62148 -1.5387,-10.62775l-28.43801,0l-2.3456,14.65841c-0.09757,0.58672 -0.147,1.07523 -0.147,1.46616c0,0.39093 0,0.83065 0,1.31916c0,1.07523 0.41533,1.75888 1.24598,2.05224c0.83065,0.29336 2.07728,0.43972 3.73858,0.43972l1.90524,0l0,6.74344l-20.52241,0l0,-6.74344l1.75952,0c2.44317,0 4.00627,-1.41673 4.69056,-4.25084c0.48851,-1.56373 1.24598,-4.95953 2.27242,-10.18803c1.0258,-5.2285 2.22299,-11.53158 3.59094,-18.90989c1.36859,-7.37831 2.83411,-15.46467 4.39784,-24.26035c1.56373,-8.79504 3.07804,-17.51691 4.5442,-26.16559c1.46616,-8.64868 2.83411,-16.88204 4.10448,-24.70007c1.27037,-7.81803 2.29682,-14.41447 3.07804,-19.78933l14.36569,0c0.87944,7.71982 2.00345,16.19775 3.3714,25.43251c1.36859,9.23541 2.8585,18.64156 4.47102,28.21847c1.61252,9.57691 3.29822,19.03185 5.05774,28.36483c1.75888,9.33234 3.46897,17.95663 5.13028,25.87287c0.87944,4.29963 1.58813,7.67103 2.12542,10.1142c0.53793,2.44317 0.97765,4.30027 1.31916,5.57064c0.34215,1.27037 0.61111,2.12542 0.80626,2.56514c0.19579,0.43972 0.39093,0.75747 0.58672,0.95262c0.39093,0.48851 0.80626,0.80626 1.24598,0.95326c0.43972,0.14636 1.14841,0.21954 2.12542,0.21954l1.46616,0l0,6.74344zm-26.82613,-33.27558l-11.87308,-78.7176c-0.19579,0.97701 -0.6599,3.39579 -1.39298,7.2557c-0.73308,3.86055 -1.61252,8.50232 -2.63832,13.92597c-1.02644,5.42364 -2.12542,11.23822 -3.29822,17.44373c-1.1728,6.20551 -2.27242,12.06951 -3.29822,17.59073c-1.02644,5.52122 -1.90588,10.33438 -2.63896,14.43887c-0.73244,4.10448 -1.19719,6.79223 -1.39234,8.0626l26.53213,0zm76.66343,5.717c0,9.67448 -2.49196,16.97961 -7.47588,21.91475c-4.98392,4.93514 -11.67794,7.4027 -20.08269,7.4027c-5.47243,0 -10.13924,-1.36859 -13.99915,-4.10448c-3.85991,-2.73654 -6.57205,-7.03616 -8.13578,-12.90017l4.6912,-1.90524c0.97701,3.61598 2.83411,6.57205 5.57,8.86822c2.73654,2.29682 5.91279,3.44522 9.52812,3.44522c5.37486,0 9.33298,-1.8327 11.87373,-5.49746c2.54075,-3.66412 3.81112,-8.18393 3.81112,-13.55943c0,-3.81112 -0.41533,-7.35328 -1.24598,-10.6271c-0.83065,-3.27383 -2.00281,-6.49887 -3.51776,-9.67513c-1.51495,-3.17626 -3.34701,-6.44944 -5.49682,-9.82148c-2.15046,-3.3714 -4.49542,-7.15813 -7.0368,-11.36018c-2.73589,-4.59299 -4.98392,-8.67308 -6.7428,-12.24027c-1.75888,-3.56719 -3.27383,-7.10934 -4.5442,-10.62775c-1.07523,-3.12683 -2.00345,-6.44944 -2.78532,-9.96784c-0.78187,-3.5184 -1.1728,-6.98738 -1.1728,-10.40756c0,-3.81176 0.48915,-7.4027 1.46616,-10.7741c0.97701,-3.37204 2.41878,-6.35251 4.32466,-8.94204c1.90524,-2.58953 4.32402,-4.61738 7.2557,-6.08354c2.93168,-1.46616 6.35251,-2.1986 10.2612,-2.1986c3.71355,0 6.59644,0.48851 8.64868,1.46552c2.05224,0.97765 3.61598,2.24803 4.69056,3.81176l0,-6.74344l6.8898,0l0,20.22905l-6.8898,0c0,-3.51776 -1.0258,-6.47383 -3.07804,-8.86822c-2.05224,-2.39439 -5.08149,-3.59158 -9.0884,-3.59158c-1.75888,0 -3.46962,0.43972 -5.13092,1.31916c-1.66131,0.87944 -2.93168,2.24803 -3.81112,4.10448c-1.07459,2.24803 -1.61252,6.10794 -1.61252,11.58037c0,3.12747 0.22018,6.05915 0.6599,8.79569c0.43972,2.73589 1.24598,5.64318 2.41878,8.72186c1.1728,3.07804 2.73589,6.52326 4.69056,10.33438c1.95467,3.81112 4.44663,8.40411 7.47588,13.77897c1.75952,3.12747 3.27383,5.79018 4.5442,7.98942c1.27037,2.1986 2.39439,4.15327 3.37204,5.86336c0.97701,1.71009 1.85645,3.32261 2.63832,4.83756c0.78187,1.51431 1.56373,3.15122 2.3456,4.91074c1.56309,3.51776 2.73589,6.7428 3.51776,9.67448c0.78187,2.93168 1.1728,6.54766 1.1728,10.84793zm70.94643,27.55857l-67.87031,0l0,-6.74344l1.90524,0c1.66131,0 2.90729,-0.31775 3.73794,-0.95262c0.83065,-0.63551 1.3442,-2.12542 1.53934,-4.47102c0.19579,-4.49542 0.31775,-9.69952 0.36654,-15.61167c0.04879,-5.91215 0.07318,-12.53298 0.07318,-19.86251c0,-9.87027 0,-18.32381 0,-25.35997c0,-7.03616 0,-13.04588 0,-18.03045c0,-4.98392 -0.02439,-9.0884 -0.07318,-12.3128c-0.04879,-3.22504 -0.09757,-5.96158 -0.14636,-8.20896c-0.04879,-2.24803 -0.12261,-4.22709 -0.22018,-5.93718c-0.09757,-1.71009 -0.19515,-3.49337 -0.29336,-5.35046c-0.19515,-1.95467 -0.61047,-3.3714 -1.24598,-4.25084c-0.63487,-0.87944 -1.73449,-1.31916 -3.29822,-1.31916l-2.34496,0l0,-6.59644l48.3737,0l0,15.24513l-6.15672,0c0,-5.76579 -1.36795,-8.64868 -4.10448,-8.64868l-10.40756,0c-2.24739,0 -3.73794,0.21954 -4.47102,0.65926c-0.73308,0.43972 -1.24598,1.73449 -1.53934,3.88494c-0.19515,2.44317 -0.39029,7.10934 -0.58608,13.99915c-0.19515,6.88916 -0.34215,16.29532 -0.43972,28.21783l10.2612,0c3.32261,0 4.98392,-2.88289 4.98392,-8.64868l6.30308,0l0,24.04081l-6.30308,0c0,-5.96158 -1.66131,-8.94204 -4.98392,-8.94204l-10.40756,0l0,13.63261c0,13.29046 0.07318,24.08896 0.21954,32.39614c0.14636,8.30654 0.46411,14.12111 0.95262,17.44373c0.19579,1.1728 0.75747,1.97906 1.68634,2.41878c0.92823,0.43972 2.36935,0.6599 4.32402,0.6599l29.90417,0c1.36795,0 2.39375,-0.63551 3.07804,-1.90588c0.68429,-1.27037 1.02644,-3.32261 1.02644,-6.15672l6.15672,0l0,16.71129zm1.46359,-6.74344l2.34496,0c1.36859,0 2.29682,-0.17075 2.78532,-0.5129c0.48851,-0.34215 0.87944,-1.05083 1.1728,-2.12542c0.09757,-0.39093 0.19579,-1.80831 0.29336,-4.25148c0.09757,-2.44317 0.19515,-5.52122 0.29272,-9.23476c0.09821,-3.71355 0.17139,-7.86682 0.22018,-12.45981c0.04879,-4.59299 0.09757,-9.28419 0.14636,-14.07233c0.04943,-4.78878 0.07382,-9.40616 0.07382,-13.85279c0,-4.44663 0,-8.42914 0,-11.94691c0,-4.6912 -0.02439,-9.82148 -0.07382,-15.39213c-0.04879,-5.57 -0.09757,-10.84728 -0.14636,-15.83121c-0.04879,-4.98392 -0.14636,-9.28419 -0.29336,-12.89953c-0.14636,-3.61598 -0.31711,-5.717 -0.5129,-6.30372c-0.29336,-1.07459 -0.68429,-1.80767 -1.1728,-2.1986c-0.48851,-0.39093 -1.41673,-0.58608 -2.78532,-0.58608l-2.34496,0l0,-6.59644l27.99829,0l0,6.59644l-2.49196,0c-1.27037,0 -2.15046,0.19515 -2.63896,0.58608c-0.48851,0.39093 -0.92823,1.12401 -1.31916,2.1986c-0.19515,0.58672 -0.34215,2.68775 -0.43972,6.30372c-0.09757,3.61533 -0.19515,7.9156 -0.29336,12.89953c-0.09757,4.98392 -0.14636,10.2612 -0.14636,15.83121c0,5.57064 0,10.70092 0,15.39213c0,3.42019 0,7.37831 0,11.87373c0,4.49542 0.02439,9.13719 0.07318,13.92597c0.04879,4.78813 0.09757,9.47934 0.14636,14.07233c0.04943,4.59299 0.09821,8.74626 0.147,12.45981c0.04879,3.71355 0.12197,6.79159 0.21954,9.23476c0.09821,2.44317 0.19579,3.86055 0.29336,4.25148c0.39093,1.07459 0.83065,1.78327 1.31916,2.12542c0.48851,0.34215 1.36859,0.5129 2.63896,0.5129l2.49196,0l0,6.74344l-27.99829,0l0,-6.74344zm65.08306,-128.2641c4.00691,0 7.52467,0.58608 10.55457,1.75888c3.02925,1.1728 5.61879,3.02925 7.76924,5.57c1.17216,1.36859 2.17421,2.71214 3.00486,4.0313c0.83065,1.31916 1.51431,2.88289 2.05224,4.6912c0.53729,1.80767 0.95262,3.93309 1.24598,6.37626c0.29336,2.44317 0.43972,5.37486 0.43972,8.79504c0,6.15672 -0.68429,10.99429 -2.05224,14.51269c-1.36795,3.51776 -3.3714,6.44944 -6.01036,8.79504c-1.85645,1.66131 -3.8843,2.88289 -6.0829,3.66476c-2.19924,0.78187 -4.96017,1.27037 -8.28279,1.46616c1.46616,0.29272 2.73654,0.75683 3.81176,1.39234c1.07459,0.63487 2.29617,1.49055 3.66476,2.56514c1.66131,1.27037 3.49337,3.3714 5.49682,6.30308c2.00345,2.93232 3.83551,6.4013 5.49682,10.40821c1.27037,3.22504 2.46757,6.59644 3.59158,10.1142c1.12401,3.5184 2.27242,7.06056 3.44458,10.62775c1.1728,3.56719 2.39439,7.10934 3.66476,10.62775c1.27037,3.51776 2.73654,6.84102 4.39784,9.96784c1.36795,2.44317 2.73654,4.15327 4.10448,5.13092c1.36795,0.97701 3.17626,1.46552 5.42364,1.46552l5.27728,0l0,6.74344l-9.67513,0c-2.83347,0 -5.32607,-0.26897 -7.47588,-0.80626c-2.14981,-0.53793 -4.08009,-1.49055 -5.79018,-2.8585c-1.71009,-1.36859 -3.27383,-3.22504 -4.69056,-5.57064c-1.41738,-2.3456 -2.8585,-5.37486 -4.32466,-9.0884c-2.34496,-5.76579 -4.42159,-11.67794 -6.2299,-17.73709c-1.80767,-6.05915 -3.8843,-11.72737 -6.2299,-17.00401c-2.24739,-4.78878 -4.29963,-8.69747 -6.15672,-11.72737c-1.85645,-3.02925 -3.95812,-5.2285 -6.30308,-6.59644c-2.54075,-1.36795 -5.03271,-2.1986 -7.47588,-2.49196c0,12.31345 0.02439,22.30568 0.07318,29.97735c0.04879,7.67167 0.12197,13.75457 0.21954,18.24999c0.09821,4.49542 0.22018,7.76924 0.36654,9.82148c0.147,2.05224 0.31775,3.66476 0.5129,4.83756c0.39093,1.95467 0.92887,3.15122 1.61252,3.59158c0.68429,0.43972 1.80831,0.65926 3.37204,0.65926l1.46552,0l0,6.74344l-28.14465,0l0,-6.74344l1.31916,0c1.85645,0 3.12747,-0.26897 3.81112,-0.80626c0.68429,-0.53729 1.12401,-1.6857 1.31916,-3.44458c0.19579,-1.07523 0.34215,-2.17421 0.43972,-3.29822c0.09821,-1.12401 0.17139,-2.58953 0.22018,-4.39784c0.04879,-1.80767 0.09757,-4.12888 0.14636,-6.96298c0.04943,-2.83411 0.09821,-6.57205 0.147,-11.21382c0.04879,-4.64177 0.07318,-10.35878 0.07318,-17.15101c0,-6.79159 0,-15.02495 0,-24.70007c0,-7.13374 -0.02439,-13.16849 -0.07318,-18.10363c-0.04879,-4.93514 -0.09757,-9.0884 -0.147,-12.45981c-0.04879,-3.3714 -0.12197,-6.08354 -0.21954,-8.13578c-0.09757,-2.05224 -0.22018,-3.66476 -0.36654,-4.83692c-0.14636,-1.1728 -0.34215,-2.07663 -0.58608,-2.71214c-0.24457,-0.63551 -0.51354,-1.24598 -0.80626,-1.83206c-0.48915,-1.07523 -1.66131,-1.61252 -3.5184,-1.61252l-1.75888,0l0,-6.59644l33.86165,0zm-7.32952,6.59644c-1.75888,0 -3.07804,1.12337 -3.95748,3.3714c-0.48915,1.27037 -0.85505,2.61393 -1.09962,4.0313c-0.24457,1.41673 -0.43972,3.61533 -0.58672,6.59644c-0.14636,2.98047 -0.24393,7.03616 -0.29272,12.16644c-0.04879,5.13092 -0.07318,11.99569 -0.07318,20.59559l8.9414,0c2.54075,0 4.78878,-0.5129 6.74344,-1.53934c1.95403,-1.0258 3.51776,-2.41814 4.69056,-4.17766c1.07523,-1.56309 1.8327,-3.54215 2.27242,-5.93654c0.43972,-2.39439 0.65926,-6.03476 0.65926,-10.92111c0,-3.02925 -0.04879,-5.54561 -0.14636,-7.54906c-0.09757,-2.00345 -0.26897,-3.68916 -0.5129,-5.0571c-0.24457,-1.36859 -0.56233,-2.51635 -0.95326,-3.44522c-0.39093,-0.92823 -0.87944,-1.83206 -1.46552,-2.7115c-1.1728,-1.75888 -2.63896,-3.10308 -4.39784,-4.0313c-1.75888,-0.92823 -4.0557,-1.39234 -6.8898,-1.39234l-2.93168,0zm92.05556,130.16998c-6.05915,0 -11.23886,-0.78187 -15.53849,-2.3456c-4.30027,-1.56373 -7.86682,-3.76233 -10.70092,-6.59644c-1.75888,-1.75888 -3.29822,-3.8843 -4.61738,-6.37626c-1.3198,-2.49196 -2.39439,-5.864 -3.22504,-10.11485c-0.83065,-4.25084 -1.44177,-9.67448 -1.8327,-16.27157c-0.39093,-6.59644 -0.58608,-14.92737 -0.58608,-24.99279c0,-10.35878 0.19515,-19.05625 0.58608,-26.09305c0.39093,-7.03616 1.02644,-12.94831 1.90588,-17.73709c0.87944,-4.78813 2.02785,-8.64868 3.44458,-11.58037c1.41738,-2.93168 3.15186,-5.42364 5.2041,-7.47588c2.63832,-2.83411 5.88776,-5.00832 9.74831,-6.52326c3.85991,-1.51431 8.4285,-2.27178 13.70579,-2.27178c5.66822,0 10.55457,0.83065 14.65905,2.49196c4.10384,1.66131 7.57346,3.95748 10.40756,6.88916c1.95467,2.05224 3.59158,4.51981 4.91074,7.4027c1.31916,2.88289 2.39439,6.69466 3.22504,11.43401c0.83065,4.73999 1.44113,10.62775 1.83206,17.66391c0.39093,7.03616 0.58608,15.68485 0.58608,25.94605c0,9.96784 -0.19515,18.24999 -0.58608,24.84643c-0.39093,6.59708 -1.00141,12.02073 -1.83206,16.27157c-0.83065,4.25084 -1.8571,7.59785 -3.07868,10.04102c-1.22159,2.44317 -2.66271,4.5442 -4.32402,6.30372c-5.864,6.05851 -13.82839,9.0884 -23.89381,9.0884zm-1.3198,-6.74344c3.5184,0 6.67026,-0.80626 9.45494,-2.41814c2.78532,-1.61252 5.00832,-3.88494 6.67026,-6.81662c0.58608,-0.97701 1.09898,-2.1986 1.5387,-3.66476c0.43972,-1.46552 0.80626,-3.90869 1.09962,-7.32952c0.29336,-3.42019 0.5129,-8.25775 0.6599,-14.51205c0.14636,-6.2543 0.21954,-14.60962 0.21954,-25.06661c0,-11.53158 -0.09757,-20.79074 -0.29336,-27.77811c-0.19515,-6.98738 -0.48851,-12.48484 -0.87944,-16.49111c-0.39093,-4.00691 -0.90383,-6.93859 -1.53934,-8.79569c-0.63487,-1.85645 -1.34355,-3.3714 -2.12542,-4.5442c-1.66131,-2.44317 -3.71355,-4.32402 -6.15672,-5.64318c-2.44317,-1.3198 -5.32607,-1.97906 -8.64868,-1.97906c-6.54766,0 -11.58037,2.58953 -15.09813,7.76924c-0.78187,1.17216 -1.49055,2.66271 -2.12542,4.47038c-0.63551,1.80831 -1.14841,4.7156 -1.53934,8.72251c-0.39093,4.00627 -0.68429,9.50373 -0.87944,16.49111c-0.19579,6.98738 -0.29336,16.19775 -0.29336,27.63175c0,10.74971 0.09757,19.34961 0.29336,25.79905c0.19515,6.45008 0.48851,11.50719 0.87944,15.17195c0.39093,3.66476 0.87944,6.27933 1.46552,7.84242c0.58672,1.56373 1.27037,2.83411 2.05224,3.81176c1.75952,2.24739 3.90934,4.03066 6.45008,5.35046c2.54075,1.31916 5.47243,1.97842 8.79504,1.97842zm-513.77342,4.98456l-30.93062,0l0,-6.74344l1.75952,0c3.51776,0 5.27728,-0.87944 5.27728,-2.63832c0,-1.36859 -0.17139,-3.59158 -0.51354,-6.66962c-0.34215,-3.07868 -0.85505,-6.62148 -1.5387,-10.62775l-28.43801,0l-2.3456,14.65841c-0.09757,0.58672 -0.147,1.07523 -0.147,1.46616c0,0.39093 0,0.83065 0,1.31916c0,1.07523 0.41533,1.75888 1.24598,2.05224c0.83065,0.29336 2.07728,0.43972 3.73858,0.43972l1.90524,0l0,6.74344l-20.52241,0l0,-6.74344l1.75952,0c2.44317,0 4.00627,-1.41673 4.69056,-4.25084c0.48851,-1.56373 1.24598,-4.95953 2.27242,-10.18803c1.0258,-5.2285 2.22299,-11.53158 3.59094,-18.90989c1.36859,-7.37831 2.83411,-15.46467 4.39784,-24.26035c1.56373,-8.79504 3.07804,-17.51691 4.5442,-26.16559c1.46616,-8.64868 2.83411,-16.88204 4.10448,-24.70007c1.27037,-7.81803 2.29682,-14.41447 3.07804,-19.78933l14.36569,0c0.87944,7.71982 2.00345,16.19775 3.3714,25.43251c1.36859,9.23541 2.8585,18.64156 4.47102,28.21847c1.61252,9.57691 3.29822,19.03185 5.05774,28.36483c1.75888,9.33234 3.46897,17.95663 5.13028,25.87287c0.87944,4.29963 1.58813,7.67103 2.12542,10.1142c0.53793,2.44317 0.97765,4.30027 1.31916,5.57064c0.34215,1.27037 0.61111,2.12542 0.80626,2.56514c0.19579,0.43972 0.39093,0.75747 0.58672,0.95262c0.39093,0.48851 0.80626,0.80626 1.24598,0.95326c0.43972,0.14636 1.14841,0.21954 2.12542,0.21954l1.46616,0l0,6.74344zm-26.82613,-33.27558l-11.87308,-78.7176c-0.19579,0.97701 -0.6599,3.39579 -1.39298,7.2557c-0.73308,3.86055 -1.61252,8.50232 -2.63832,13.92597c-1.02644,5.42364 -2.12542,11.23822 -3.29822,17.44373c-1.1728,6.20551 -2.27242,12.06951 -3.29822,17.59073c-1.02644,5.52122 -1.90588,10.33438 -2.63896,14.43887c-0.73244,4.10448 -1.19719,6.79223 -1.39234,8.0626l26.53213,0z" class="fil1"/>
            <path stroke="null" id="svg_4" d="m495.89261,249.57909c1.49569,0 2.92526,0.15535 4.28807,0.4654c1.36281,0.31069 2.52598,0.74271 3.50107,1.30761l0,4.14428c-1.36281,-0.50969 -2.61521,-0.89806 -3.76747,-1.1529c-1.1407,-0.25485 -2.31543,-0.37617 -3.50107,-0.37617c-1.26331,0 -2.50416,0.21055 -3.73409,0.6201c-1.22993,0.41019 -2.3379,1.08614 -3.31234,2.02785c-0.97509,0.94171 -1.76209,2.18255 -2.34945,3.73409c-0.59828,1.53998 -0.89741,3.46769 -0.89741,5.7613c0,1.66195 0.22146,3.20193 0.66504,4.60904c0.44293,1.4071 1.10797,2.62612 1.98291,3.65642c0.87559,1.01938 1.97264,1.82821 3.29116,2.3931c1.31852,0.57645 2.84759,0.86468 4.57566,0.86468c1.26331,0 2.52663,-0.13288 3.80085,-0.39928c1.27423,-0.26576 2.52598,-0.64257 3.73345,-1.12979l0,4.16611c-0.36526,0.22146 -0.85312,0.43202 -1.44048,0.65348c-0.59828,0.21055 -1.25176,0.39864 -1.972,0.5649c-0.70933,0.15535 -1.46231,0.28823 -2.27114,0.38772c-0.79792,0.10014 -1.59583,0.14443 -2.40466,0.14443c-2.0715,0 -4.03259,-0.31069 -5.88326,-0.94171c-1.85003,-0.62074 -3.46769,-1.58492 -4.85297,-2.88097c-1.38528,-1.30761 -2.48169,-2.94709 -3.27961,-4.94155c-0.79792,-1.98355 -1.19655,-4.34328 -1.19655,-7.0689c0,-2.02785 0.21055,-3.85606 0.63166,-5.48463c0.4211,-1.61766 0.99691,-3.04723 1.73962,-4.27716c0.73115,-1.22993 1.58428,-2.28205 2.57028,-3.14673c0.986,-0.86403 2.03876,-1.57336 3.14673,-2.12735c1.11888,-0.55398 2.27114,-0.95262 3.45678,-1.19655c1.19655,-0.25485 2.34881,-0.37681 3.47924,-0.37681zm45.10501,16.25424c0,-1.90524 -0.23238,-3.60057 -0.69777,-5.08535c-0.4654,-1.48478 -1.11888,-2.74809 -1.95017,-3.77838c-0.84221,-1.03029 -1.82821,-1.80574 -2.98047,-2.3379c-1.15226,-0.53152 -2.41557,-0.79792 -3.77838,-0.79792c-1.36281,0 -2.62548,0.2664 -3.77838,0.79792c-1.15226,0.53216 -2.13826,1.30761 -2.98047,2.3379c-0.83065,1.03029 -1.48414,2.29361 -1.94953,3.77838c-0.4654,1.48478 -0.69842,3.18011 -0.69842,5.08535c0,1.88406 0.23302,3.56783 0.69842,5.05261c0.4654,1.48478 1.11888,2.73654 1.972,3.75592c0.84221,1.01938 1.83912,1.79547 2.99138,2.32699c1.15226,0.53216 2.41557,0.79792 3.77838,0.79792c1.36281,0 2.61457,-0.26576 3.75592,-0.79792c1.14135,-0.53152 2.12735,-1.30761 2.96955,-2.32699c0.8313,-1.01938 1.48478,-2.27114 1.95017,-3.75592c0.4654,-1.48478 0.69777,-3.16855 0.69777,-5.05261zm5.25225,0c0,2.42648 -0.34343,4.6315 -1.04185,6.61506c-0.68686,1.99447 -1.67286,3.70071 -2.93617,5.10781c-1.27423,1.41802 -2.8033,2.51507 -4.59812,3.30143c-1.80574,0.77609 -3.82268,1.16381 -6.04952,1.16381c-2.29361,0 -4.35419,-0.38772 -6.16057,-1.16381c-1.80574,-0.78636 -3.34572,-1.88341 -4.61995,-3.30143c-1.26331,-1.4071 -2.22749,-3.11335 -2.90279,-5.10781c-0.67595,-1.98355 -1.00847,-4.18857 -1.00847,-6.61506c0,-2.44831 0.34343,-4.66424 1.04121,-6.6478c0.68686,-1.99447 1.6735,-3.70071 2.93617,-5.12964c1.27423,-1.42957 2.81421,-2.52663 4.62059,-3.31299c1.80574,-0.77545 3.83359,-1.16381 6.06043,-1.16381c2.27178,0 4.32145,0.38837 6.13811,1.16381c1.82821,0.78636 3.36883,1.88341 4.62059,3.31299c1.25176,1.42893 2.21593,3.13517 2.89188,5.12964c0.67595,1.98355 1.00847,4.19949 1.00847,6.6478zm40.09733,15.3902l-5.05261,0l0,-19.83298c0,-1.34034 -0.14443,-2.47078 -0.44357,-3.41248c-0.28758,-0.94171 -0.70869,-1.7178 -1.26267,-2.32699c-0.55398,-0.60919 -1.21902,-1.05276 -1.98355,-1.32943c-0.77545,-0.27731 -1.62857,-0.4211 -2.59274,-0.4211c-1.79483,0 -3.43431,0.47631 -4.90817,1.44048c-1.47386,0.96417 -2.79238,2.28205 -3.96647,3.96647l0,21.91603l-5.05261,0l0,-30.84652l3.91126,0l0.97509,4.28807l0.0995,0c0.5649,-0.72024 1.17473,-1.37372 1.83912,-1.99447c0.65412,-0.60919 1.39619,-1.15226 2.20502,-1.61766c0.81974,-0.4654 1.7178,-0.83065 2.69224,-1.0855c0.97509,-0.25485 2.03876,-0.38837 3.19102,-0.38837c2.29361,0 4.2104,0.55463 5.72856,1.65104c1.51816,1.10797 2.69224,2.60366 3.51263,4.50954l0.13288,0c1.36281,-1.92771 2.92462,-3.43431 4.6758,-4.52045c1.75054,-1.09705 3.7893,-1.64012 6.12719,-1.64012c1.0855,0 2.22685,0.15535 3.43431,0.45448c1.21902,0.29914 2.32699,0.86403 3.34637,1.67286c1.01938,0.80883 1.86159,1.92835 2.52598,3.35728c0.67595,1.42957 1.00847,3.26869 1.00847,5.51801l0,20.64181l-5.05261,0l0,-19.83298c0,-1.34034 -0.14379,-2.47078 -0.43202,-3.41248c-0.29914,-0.94171 -0.72024,-1.7178 -1.26331,-2.32699c-0.55398,-0.60919 -1.20746,-1.05276 -1.972,-1.32943c-0.76454,-0.27731 -1.61766,-0.4211 -2.57028,-0.4211c-1.78392,0 -3.42404,0.47631 -4.89726,1.44048c-1.47386,0.96417 -2.79238,2.28205 -3.95555,3.96647l0,21.91603zm37.07193,0l0,-30.84652l5.05261,0l0,30.84652l-5.05261,0zm-0.13288,-38.02584l0,-5.58477l5.05197,0l0,5.58477l-5.05197,0zm25.59299,22.94633c0,1.77236 0.19964,3.3791 0.59828,4.81959c0.41019,1.44048 0.986,2.65886 1.73962,3.66733c0.76454,1.00847 1.69533,1.78392 2.8033,2.32699c1.10797,0.54307 2.38219,0.80883 3.81176,0.80883c1.06367,0 2.02721,-0.14443 2.89188,-0.4211c0.86403,-0.28823 1.63948,-0.64257 2.32634,-1.07459c0.68686,-0.43266 1.27423,-0.8865 1.76209,-1.37437c0.48722,-0.48722 0.87495,-0.94171 1.15226,-1.35126l0,-16.14382c-1.04185,-1.05212 -2.24931,-1.90524 -3.61212,-2.54845c-1.36281,-0.63101 -2.83668,-0.95262 -4.42095,-0.95262c-0.96417,0 -1.96109,0.17717 -3.01385,0.53216c-1.05276,0.36526 -2.02785,1.00783 -2.92526,1.93862c-0.90833,0.93079 -1.65039,2.18255 -2.23776,3.745c-0.58736,1.57336 -0.87559,3.57874 -0.87559,6.0277zm-5.25161,0.04429c0,-2.1389 0.21055,-4.03323 0.63166,-5.69518c0.4211,-1.65104 0.986,-3.09152 1.67286,-4.33237c0.69777,-1.22993 1.5066,-2.26023 2.4374,-3.09152c0.94171,-0.83065 1.90588,-1.5066 2.90279,-2.02721c0.99755,-0.5206 2.00602,-0.89741 3.03632,-1.11888c1.03029,-0.23302 1.99447,-0.34407 2.91371,-0.34407c1.88406,0 3.52354,0.31069 4.90882,0.94235c1.38464,0.63101 2.62548,1.5509 3.73345,2.75836l0.10014,0l0,-19.05689l5.05197,0l0,47.00062l-3.81112,0l-1.04185,-3.44586l-0.13288,0c-0.38772,0.49878 -0.85312,1.00847 -1.36281,1.51816c-0.5206,0.50969 -1.14135,0.96353 -1.83912,1.37372c-0.70933,0.41019 -1.51816,0.74207 -2.4374,0.986c-0.91988,0.24393 -1.99447,0.3659 -3.20193,0.3659c-1.69533,0 -3.35728,-0.28823 -4.97494,-0.86468c-1.62921,-0.5649 -3.08061,-1.48414 -4.34328,-2.74745c-1.26331,-1.27423 -2.29361,-2.90279 -3.0697,-4.90817c-0.78636,-1.99447 -1.17408,-4.43251 -1.17408,-7.31283zm62.40109,11.62273l-0.12197,0c-0.4211,0.5206 -0.94171,1.04121 -1.56245,1.5509c-0.63166,0.49878 -1.36281,0.95326 -2.18255,1.3519c-0.83065,0.41019 -1.72871,0.72024 -2.70316,0.95262c-0.97509,0.23302 -2.01693,0.35499 -3.1249,0.35499c-1.49569,0 -2.86941,-0.22146 -4.11026,-0.66504c-1.2524,-0.44293 -2.32699,-1.09705 -3.2244,-1.95017c-0.89741,-0.85312 -1.59583,-1.89433 -2.09397,-3.12426c-0.49878,-1.22993 -0.75362,-2.62612 -0.75362,-4.17702c0,-1.53998 0.27667,-2.91435 0.83065,-4.12181c0.55398,-1.20746 1.33007,-2.2384 2.32699,-3.07997c0.99691,-0.84221 2.19411,-1.49633 3.58966,-1.95017c1.39619,-0.45448 2.94773,-0.67595 4.6315,-0.67595c1.60674,0.02183 3.09152,0.16626 4.46524,0.4211c1.36281,0.25485 2.57092,0.58736 3.63459,0.97509l0.13288,0l0,-2.1389c0,-0.85312 -0.05585,-1.59519 -0.16626,-2.24867c-0.10014,-0.64321 -0.28823,-1.21902 -0.54307,-1.7178c-0.5649,-1.04121 -1.46231,-1.89433 -2.7038,-2.58119c-1.22929,-0.67595 -2.89124,-1.01938 -4.99676,-1.01938c-1.5509,0 -3.02476,0.14379 -4.39848,0.42046c-1.37437,0.28823 -2.73718,0.67595 -4.09999,1.17473l0,-4.17702c0.50969,-0.26576 1.13043,-0.49878 1.82821,-0.73115c0.70933,-0.22146 1.4514,-0.4211 2.22749,-0.57645c0.77545,-0.16626 1.59519,-0.28823 2.47078,-0.36526c0.86403,-0.08859 1.72807,-0.13352 2.59274,-0.13352c3.11335,0 5.6618,0.55463 7.64471,1.65104c1.98355,1.10797 3.41248,2.57092 4.28807,4.38757c0.32161,0.6875 0.55398,1.4514 0.69777,2.28269c0.14443,0.8313 0.21055,1.75054 0.21055,2.74809l0,20.57505l-4.23223,0l-0.55398,-3.41248zm-0.26576,-10.13795c-0.93079,-0.2664 -2.02785,-0.50969 -3.30207,-0.75362c-1.27423,-0.23302 -2.68133,-0.3659 -4.22131,-0.38772c-2.13826,0 -3.81176,0.45384 -5.01923,1.36281c-1.20746,0.91924 -1.8173,2.31543 -1.8173,4.2104c0,0.95262 0.15535,1.78392 0.45448,2.50416c0.29914,0.72024 0.72024,1.30696 1.25176,1.77236c0.52124,0.4654 1.15226,0.81974 1.8725,1.04185c0.7318,0.23238 1.49569,0.34343 2.31607,0.34343c1.0855,0 2.09397,-0.15535 3.02476,-0.47631c0.91924,-0.31069 1.75054,-0.6875 2.47078,-1.11952c0.73115,-0.43202 1.34034,-0.86403 1.85003,-1.30696c0.50969,-0.43266 0.8865,-0.76454 1.11952,-1.00847l0,-6.1824zm70.66655,-1.98355c0,-2.44895 -0.28758,-4.43186 -0.86403,-5.96094c-0.5649,-1.52907 -1.30761,-2.71471 -2.19346,-3.56783c-0.89806,-0.85312 -1.86159,-1.4514 -2.87006,-1.773c-1.01938,-0.32096 -2.03876,-0.48722 -3.04659,-0.48722c-1.56245,0 -3.0254,0.32161 -4.39913,0.97509c-1.37372,0.65348 -2.58119,1.49569 -3.64486,2.52598l0,16.14382c0.29914,0.40955 0.69777,0.86403 1.185,1.35126c0.48786,0.48786 1.06367,0.94171 1.72871,1.36281c0.67595,0.4211 1.42957,0.77609 2.26023,1.06367c0.8313,0.29914 1.73962,0.44357 2.73654,0.44357c1.48478,0 2.8033,-0.28823 3.93373,-0.87559c1.14135,-0.58736 2.09397,-1.41802 2.8585,-2.48169c0.76454,-1.07459 1.34099,-2.34881 1.72871,-3.83359c0.38772,-1.48478 0.58672,-3.11335 0.58672,-4.88635zm5.25225,-0.41019c0,2.88097 -0.38772,5.36266 -1.16381,7.46818c-0.78636,2.09397 -1.80574,3.83359 -3.09088,5.20731c-1.27423,1.37372 -2.73654,2.3931 -4.37666,3.05814c-1.64012,0.67595 -3.34637,1.00847 -5.0969,1.00847c-1.31852,0 -2.48169,-0.16626 -3.49016,-0.49878c-0.99691,-0.33252 -1.86095,-0.73115 -2.55936,-1.19655c-0.70933,-0.4654 -1.26331,-0.93079 -1.68377,-1.4071c-0.4211,-0.47631 -0.72024,-0.85312 -0.89806,-1.14135l-0.0995,0l-1.06367,3.44586l-3.80021,0l0,-47.00062l5.05261,0l0,19.05689l0.0995,0c1.09705,-1.16317 2.38219,-2.08305 3.85541,-2.72562c1.47386,-0.65348 3.14673,-0.97509 5.01923,-0.97509c0.86468,0 1.80638,0.10014 2.81485,0.28823c0.99691,0.19964 1.99383,0.53216 2.98047,1.00847c0.97445,0.47631 1.92771,1.10797 2.83603,1.88341c0.90897,0.77545 1.70624,1.75054 2.3931,2.90279c0.69842,1.15226 1.24149,2.52663 1.65104,4.12181c0.41019,1.58428 0.62074,3.42404 0.62074,5.49554zm31.7985,-10.78052l-0.38772,0c-1.18564,0 -2.36037,0.11105 -3.50171,0.32161c-1.15226,0.22146 -2.22685,0.55398 -3.23531,0.99691c-1.00783,0.44293 -1.91679,0.986 -2.72562,1.62857c-0.80883,0.65412 -1.48478,1.41866 -2.02721,2.30452l0,21.4731l-5.05261,0l0,-30.84652l3.91126,0l0.97509,4.89726l0.0995,0c0.49878,-0.79727 1.10797,-1.53998 1.83912,-2.22685c0.72024,-0.69777 1.54063,-1.29605 2.44895,-1.8173c0.90833,-0.5206 1.90588,-0.91924 2.98047,-1.21838c1.0855,-0.28823 2.22685,-0.43266 3.41248,-0.43266c0.22146,0 0.44357,0 0.66504,0.01155c0.23238,0.01091 0.43202,0.03338 0.59828,0.05521l0,4.85297zm30.33555,23.31222l-0.12197,0c-0.4211,0.5206 -0.94171,1.04121 -1.56245,1.5509c-0.63166,0.49878 -1.36281,0.95326 -2.18255,1.3519c-0.83065,0.41019 -1.72871,0.72024 -2.70316,0.95262c-0.97509,0.23302 -2.01693,0.35499 -3.1249,0.35499c-1.49569,0 -2.86941,-0.22146 -4.11026,-0.66504c-1.2524,-0.44293 -2.32699,-1.09705 -3.2244,-1.95017c-0.89741,-0.85312 -1.59583,-1.89433 -2.09397,-3.12426c-0.49878,-1.22993 -0.75362,-2.62612 -0.75362,-4.17702c0,-1.53998 0.27667,-2.91435 0.83065,-4.12181c0.55398,-1.20746 1.33007,-2.2384 2.32699,-3.07997c0.99691,-0.84221 2.19411,-1.49633 3.58966,-1.95017c1.39619,-0.45448 2.94773,-0.67595 4.6315,-0.67595c1.60674,0.02183 3.09152,0.16626 4.46524,0.4211c1.36281,0.25485 2.57092,0.58736 3.63459,0.97509l0.13288,0l0,-2.1389c0,-0.85312 -0.05585,-1.59519 -0.16626,-2.24867c-0.10014,-0.64321 -0.28823,-1.21902 -0.54307,-1.7178c-0.5649,-1.04121 -1.46231,-1.89433 -2.7038,-2.58119c-1.22929,-0.67595 -2.89124,-1.01938 -4.99676,-1.01938c-1.5509,0 -3.02476,0.14379 -4.39848,0.42046c-1.37437,0.28823 -2.73718,0.67595 -4.09999,1.17473l0,-4.17702c0.50969,-0.26576 1.13043,-0.49878 1.82821,-0.73115c0.70933,-0.22146 1.4514,-0.4211 2.22749,-0.57645c0.77545,-0.16626 1.59519,-0.28823 2.47078,-0.36526c0.86403,-0.08859 1.72807,-0.13352 2.59274,-0.13352c3.11335,0 5.6618,0.55463 7.64471,1.65104c1.98355,1.10797 3.41248,2.57092 4.28807,4.38757c0.32161,0.6875 0.55398,1.4514 0.69777,2.28269c0.14443,0.8313 0.21055,1.75054 0.21055,2.74809l0,20.57505l-4.23223,0l-0.55398,-3.41248zm-0.26576,-10.13795c-0.93079,-0.2664 -2.02785,-0.50969 -3.30207,-0.75362c-1.27423,-0.23302 -2.68133,-0.3659 -4.22131,-0.38772c-2.13826,0 -3.81176,0.45384 -5.01923,1.36281c-1.20746,0.91924 -1.8173,2.31543 -1.8173,4.2104c0,0.95262 0.15535,1.78392 0.45448,2.50416c0.29914,0.72024 0.72024,1.30696 1.25176,1.77236c0.52124,0.4654 1.15226,0.81974 1.8725,1.04185c0.7318,0.23238 1.49569,0.34343 2.31607,0.34343c1.0855,0 2.09397,-0.15535 3.02476,-0.47631c0.91924,-0.31069 1.75054,-0.6875 2.47078,-1.11952c0.73115,-0.43202 1.34034,-0.86403 1.85003,-1.30696c0.50969,-0.43266 0.8865,-0.76454 1.11952,-1.00847l0,-6.1824zm25.23865,-9.07492c0,0.84221 0.17781,1.54063 0.54307,2.07214c0.35434,0.54307 0.84221,0.986 1.4514,1.31852c0.59828,0.33252 1.29669,0.60919 2.09397,0.8313c0.79792,0.21055 1.61766,0.40955 2.47078,0.57581c1.16381,0.26576 2.27178,0.55398 3.30207,0.86403c1.04185,0.31069 2.00538,0.787 2.88097,1.4071c0.8865,0.63166 1.59519,1.48478 2.13826,2.54845c0.54307,1.07523 0.80883,2.45986 0.80883,4.16611c0,1.56245 -0.29914,2.93617 -0.90833,4.14428c-0.60983,1.19655 -1.46295,2.20438 -2.57092,3.01321c-1.10797,0.80883 -2.42648,1.42957 -3.96647,1.85068c-1.53998,0.4211 -3.23531,0.63166 -5.07443,0.63166c-1.13043,0 -2.14981,-0.05585 -3.06905,-0.17717c-0.93079,-0.12197 -1.73962,-0.2664 -2.44895,-0.45448c-0.69777,-0.17717 -1.29605,-0.3659 -1.79483,-0.55398c-0.49878,-0.19964 -0.91988,-0.37681 -1.24085,-0.55398l0,-4.17702c1.27423,0.50969 2.54845,0.91924 3.80021,1.21838c1.26331,0.29914 2.64795,0.44357 4.15519,0.44357c1.19655,0 2.27114,-0.11105 3.23531,-0.32161c0.95262,-0.22146 1.78392,-0.54307 2.47078,-0.96353c0.69777,-0.43266 1.22993,-0.96417 1.60674,-1.60674c0.36526,-0.63166 0.55398,-1.38528 0.55398,-2.22685c0,-0.86468 -0.16626,-1.58492 -0.50969,-2.1389c-0.34343,-0.5649 -0.79792,-1.03029 -1.37437,-1.39619c-0.57581,-0.37617 -1.24085,-0.67531 -1.99447,-0.90833c-0.76389,-0.24393 -1.5509,-0.45448 -2.38155,-0.65348c-1.08614,-0.23302 -2.19411,-0.5206 -3.31299,-0.84221c-1.11952,-0.32161 -2.12735,-0.77545 -3.04723,-1.36281c-0.91988,-0.58736 -1.66195,-1.37372 -2.22685,-2.38219c-0.56554,-1.00847 -0.84221,-2.30452 -0.84221,-3.87788c0,-1.61766 0.28823,-3.02476 0.87559,-4.22131c0.58672,-1.18564 1.38464,-2.17164 2.38219,-2.94773c0.99691,-0.77545 2.14917,-1.36281 3.4786,-1.75054c1.31852,-0.38772 2.71471,-0.58736 4.18857,-0.58736c1.71716,0 3.30143,0.15535 4.76438,0.47695c1.47322,0.32096 2.79174,0.73115 3.98829,1.21838l0,4.22195c-1.27423,-0.47695 -2.55936,-0.87559 -3.85541,-1.17473c-1.30761,-0.31005 -2.64795,-0.4654 -4.02232,-0.48786c-1.16317,0 -2.16073,0.12197 -2.99138,0.35499c-0.81974,0.24393 -1.5066,0.57581 -2.02785,0.99691c-0.53152,0.4211 -0.91924,0.93079 -1.16317,1.50724c-0.24393,0.57581 -0.3659,1.20746 -0.3659,1.90524zm30.53583,22.62536l0,-30.84652l5.05261,0l0,30.84652l-5.05261,0zm-0.13288,-38.02584l0,-5.58477l5.05197,0l0,5.58477l-5.05197,0zm22.46873,38.02584l0,-47.00062l5.05261,0l0,47.00062l-5.05261,0zm34.00288,-27.32299c-1.17473,0 -2.24931,0.23238 -3.25778,0.68686c-0.99691,0.45448 -1.8725,1.06367 -2.61457,1.85068c-0.74207,0.77545 -1.3519,1.69469 -1.8173,2.74745c-0.45384,1.04185 -0.74207,2.16073 -0.85312,3.35728l15.82222,0c0,-1.21902 -0.15535,-2.34881 -0.47631,-3.39066c-0.32161,-1.05212 -0.787,-1.972 -1.4071,-2.74745c-0.60983,-0.787 -1.36281,-1.39619 -2.27178,-1.83912c-0.89741,-0.44357 -1.93862,-0.66504 -3.12426,-0.66504zm2.62612,23.73333c1.66195,0 3.17946,-0.13288 4.55383,-0.39928c1.37372,-0.26576 2.74745,-0.64257 4.11026,-1.12979l0,4.16611c-1.10797,0.54243 -2.47078,0.96353 -4.08843,1.28514c-1.62857,0.31005 -3.36819,0.4654 -5.22978,0.4654c-2.20438,0 -4.27652,-0.27731 -6.21578,-0.84221c-1.93862,-0.5649 -3.61212,-1.47386 -5.03014,-2.72562c-1.4071,-1.2524 -2.51507,-2.89188 -3.3239,-4.91973c-0.79792,-2.01629 -1.19655,-4.45369 -1.19655,-7.31219c0,-2.81485 0.38772,-5.25225 1.16317,-7.31283c0.787,-2.07214 1.8173,-3.7893 3.11335,-5.17457c1.29669,-1.38464 2.79238,-2.42648 4.4768,-3.11335c1.68377,-0.69777 3.44522,-1.04185 5.28499,-1.04185c1.72807,0 3.34572,0.28823 4.84141,0.86468c1.50724,0.57581 2.81485,1.47322 3.91126,2.71471c1.10797,1.22929 1.97264,2.82512 2.61521,4.7753c0.63166,1.95017 0.95262,4.28807 0.95262,7.0137c0,0.25485 0,0.47631 0,0.66439c0,0.18873 -0.01091,0.59828 -0.03338,1.2524l-21.32867,0c0,1.96109 0.28823,3.62304 0.8865,4.99676c0.59828,1.36281 1.4071,2.48169 2.4374,3.33481c1.03093,0.84221 2.22749,1.46295 3.61212,1.85068c1.38528,0.38772 2.88097,0.58736 4.48771,0.58736zm25.69313,3.58966l0,-30.84652l5.05261,0l0,30.84652l-5.05261,0zm-0.13288,-38.02584l0,-5.58477l5.05197,0l0,5.58477l-5.05197,0zm39.0664,11.30113l-0.38772,0c-1.18564,0 -2.36037,0.11105 -3.50171,0.32161c-1.15226,0.22146 -2.22685,0.55398 -3.23531,0.99691c-1.00783,0.44293 -1.91679,0.986 -2.72562,1.62857c-0.80883,0.65412 -1.48478,1.41866 -2.02721,2.30452l0,21.4731l-5.05261,0l0,-30.84652l3.91126,0l0.97509,4.89726l0.0995,0c0.49878,-0.79727 1.10797,-1.53998 1.83912,-2.22685c0.72024,-0.69777 1.54063,-1.29605 2.44895,-1.8173c0.90833,-0.5206 1.90588,-0.91924 2.98047,-1.21838c1.0855,-0.28823 2.22685,-0.43266 3.41248,-0.43266c0.22146,0 0.44357,0 0.66504,0.01155c0.23238,0.01091 0.43202,0.03338 0.59828,0.05521l0,4.85297zm30.33555,23.31222l-0.12197,0c-0.4211,0.5206 -0.94171,1.04121 -1.56245,1.5509c-0.63166,0.49878 -1.36281,0.95326 -2.18255,1.3519c-0.83065,0.41019 -1.72871,0.72024 -2.70316,0.95262c-0.97509,0.23302 -2.01693,0.35499 -3.1249,0.35499c-1.49569,0 -2.86941,-0.22146 -4.11026,-0.66504c-1.2524,-0.44293 -2.32699,-1.09705 -3.2244,-1.95017c-0.89741,-0.85312 -1.59583,-1.89433 -2.09397,-3.12426c-0.49878,-1.22993 -0.75362,-2.62612 -0.75362,-4.17702c0,-1.53998 0.27667,-2.91435 0.83065,-4.12181c0.55398,-1.20746 1.33007,-2.2384 2.32699,-3.07997c0.99691,-0.84221 2.19411,-1.49633 3.58966,-1.95017c1.39619,-0.45448 2.94773,-0.67595 4.6315,-0.67595c1.60674,0.02183 3.09152,0.16626 4.46524,0.4211c1.36281,0.25485 2.57092,0.58736 3.63459,0.97509l0.13288,0l0,-2.1389c0,-0.85312 -0.05585,-1.59519 -0.16626,-2.24867c-0.10014,-0.64321 -0.28823,-1.21902 -0.54307,-1.7178c-0.5649,-1.04121 -1.46231,-1.89433 -2.7038,-2.58119c-1.22929,-0.67595 -2.89124,-1.01938 -4.99676,-1.01938c-1.5509,0 -3.02476,0.14379 -4.39848,0.42046c-1.37437,0.28823 -2.73718,0.67595 -4.09999,1.17473l0,-4.17702c0.50969,-0.26576 1.13043,-0.49878 1.82821,-0.73115c0.70933,-0.22146 1.4514,-0.4211 2.22749,-0.57645c0.77545,-0.16626 1.59519,-0.28823 2.47078,-0.36526c0.86403,-0.08859 1.72807,-0.13352 2.59274,-0.13352c3.11335,0 5.6618,0.55463 7.64471,1.65104c1.98355,1.10797 3.41248,2.57092 4.28807,4.38757c0.32161,0.6875 0.55398,1.4514 0.69777,2.28269c0.14443,0.8313 0.21055,1.75054 0.21055,2.74809l0,20.57505l-4.23223,0l-0.55398,-3.41248zm-0.26576,-10.13795c-0.93079,-0.2664 -2.02785,-0.50969 -3.30207,-0.75362c-1.27423,-0.23302 -2.68133,-0.3659 -4.22131,-0.38772c-2.13826,0 -3.81176,0.45384 -5.01923,1.36281c-1.20746,0.91924 -1.8173,2.31543 -1.8173,4.2104c0,0.95262 0.15535,1.78392 0.45448,2.50416c0.29914,0.72024 0.72024,1.30696 1.25176,1.77236c0.52124,0.4654 1.15226,0.81974 1.8725,1.04185c0.7318,0.23238 1.49569,0.34343 2.31607,0.34343c1.0855,0 2.09397,-0.15535 3.02476,-0.47631c0.91924,-0.31069 1.75054,-0.6875 2.47078,-1.11952c0.73115,-0.43202 1.34034,-0.86403 1.85003,-1.30696c0.50969,-0.43266 0.8865,-0.76454 1.11952,-1.00847l0,-6.1824z" class="fil2"/>
            <text stroke="null" fill="black" transform="matrix(0.06419271078466116,0,0,0.06419271078466116,-40.33628290057431,-213.64361111907647) " id="svg_5" class="fil3 str1 fnt0" y="4711.5262" x="9667.27348">~</text>
        </g>
    </g>
</svg>